<svg width="35" height="29" viewBox="0 0 35 29" fill="none" xmlns="http://www.w3.org/2000/svg">
<path fill-rule="evenodd" clip-rule="evenodd" d="M9.02122 1.3466C14.6633 0.856147 20.3372 0.856147 25.9793 1.3466L28.6851 1.58181C31.2742 1.80688 33.3716 3.77707 33.7581 6.34702C34.5709 11.752 34.5709 17.2481 33.7581 22.653C33.687 23.1258 33.558 23.5783 33.3786 24.0034C33.2597 24.2853 32.8928 24.3281 32.6871 24.1017L24.7653 15.3878C24.4074 14.9941 23.8509 14.8486 23.3461 15.0169L18.8117 16.5284L12.2337 9.12812C11.9878 8.85152 11.6388 8.68856 11.2689 8.67769C10.8989 8.66682 10.5409 8.809 10.2792 9.07069L1.47474 17.8752C1.20376 18.1461 0.741619 17.9737 0.720014 17.591C0.508175 13.8395 0.682301 10.0716 1.24239 6.34702C1.62885 3.77707 3.7263 1.80688 6.31538 1.58181L9.02122 1.3466ZM21.0836 9.12503C21.0836 7.64076 22.2868 6.43753 23.7711 6.43753C25.2553 6.43753 26.4586 7.64076 26.4586 9.12503C26.4586 10.6093 25.2553 11.8125 23.7711 11.8125C22.2868 11.8125 21.0836 10.6093 21.0836 9.12503Z" fill="#EFC9C8"/>
<path d="M1.30594 21.8446C1.20677 21.9438 1.15966 22.0837 1.17941 22.2226C1.19983 22.3661 1.22083 22.5096 1.24239 22.653C1.62885 25.223 3.7263 27.1932 6.31538 27.4182L9.02122 27.6534C14.6633 28.1439 20.3372 28.1439 25.9793 27.6534L28.6851 27.4182C29.4459 27.3521 30.1642 27.1353 30.8092 26.7968C31.0536 26.6686 31.0948 26.3454 30.9091 26.1412L23.5618 18.0592C23.4425 17.928 23.257 17.8795 23.0888 17.9356L18.821 19.3582C18.311 19.5281 17.7488 19.3779 17.3917 18.9761L11.4874 12.3338C11.3162 12.1412 11.0182 12.1324 10.8359 12.3146L1.30594 21.8446Z" fill="#EFC9C8"/>
</svg>
