<svg width="257" height="121" viewBox="0 0 257 121" fill="none" xmlns="http://www.w3.org/2000/svg">
<path d="M2 113.424C7.3938 97.0843 28.6517 67.2886 44.8331 85.5507C68.6228 112.399 72.4367 100.928 87.6662 67.2886C102.896 33.649 117.173 -4.79631 148.584 67.2886C160.007 92.2785 169.133 115.296 194.665 76.623C197.711 72.0096 252.972 3.58172 255 1.5528" stroke="#63BDAF" stroke-width="3" stroke-linecap="round"/>
<path d="M204.229 28.2297C198.499 45.3579 175.917 76.5921 158.727 57.4483C133.456 29.3033 129.404 41.3283 113.226 76.5921C97.0477 111.856 81.8806 152.157 48.513 76.5921C36.3793 50.3957 26.268 34.2751 2.00061 68.5313" stroke="#DEF5F2" stroke-width="3" stroke-linecap="round"/>
</svg>
