<svg width="24" height="36" viewBox="0 0 24 36" fill="none" xmlns="http://www.w3.org/2000/svg">
<path fill-rule="evenodd" clip-rule="evenodd" d="M23.24 15.905L23.2509 15.5002L22.9776 5.33704C22.9738 5.19751 22.9641 5.05941 22.9487 4.92299L22.9357 4.79915C22.7985 3.43256 22.0407 2.24085 20.9374 1.52357C20.8521 1.46671 20.7648 1.41264 20.6755 1.36149C20.5909 1.31146 20.5045 1.26403 20.4164 1.21928C19.8728 0.932788 19.2662 0.747089 18.6206 0.687658C14.2165 0.282256 9.78444 0.282255 5.38034 0.687657C4.73368 0.747183 4.12619 0.933381 3.58186 1.22065C3.49383 1.26546 3.40744 1.31297 3.3228 1.36305C3.23628 1.41272 3.15159 1.46513 3.06883 1.52017C1.95962 2.23905 1.19849 3.43698 1.06414 4.81049L1.05921 4.85772L1.05299 4.91632C1.03712 5.05491 1.02716 5.19523 1.02334 5.33703L0.75 15.5002L0.760936 15.9068L0.750096 16.3336L0.760436 16.7407L0.750179 17.1669L0.759933 17.5722L0.750149 18.0002L1.02078 29.8386C1.085 32.6474 3.22127 34.9735 6.01446 35.276C9.9935 35.7069 14.0074 35.7069 17.9865 35.276C20.7797 34.9735 22.9159 32.6474 22.9802 29.8386L23.2508 18.0002L23.2411 17.5751L23.2509 17.1669L23.2406 16.739L23.2509 16.3336L23.24 15.905ZM20.5072 12.8629L20.4576 5.2014C20.457 5.17696 20.456 5.15263 20.4545 5.12841C20.3555 4.45762 19.9668 3.8786 19.4156 3.52707C19.207 3.41835 18.9755 3.34624 18.7293 3.31958C14.2565 2.83519 9.74446 2.83519 5.27166 3.31958C5.02533 3.34625 4.79376 3.4184 4.58506 3.5272C4.03415 3.87864 3.6456 4.45739 3.54646 5.12785C3.54498 5.15225 3.54396 5.17677 3.5434 5.20139L3.49375 12.8629C3.54142 14.6352 4.90659 16.0919 6.67204 16.2544C10.2168 16.5807 13.7841 16.5808 17.3289 16.2544C19.0943 16.0919 20.4595 14.6352 20.5072 12.8629ZM4.50051 18C4.04027 18 3.66717 18.3731 3.66717 18.8333C3.66717 19.2936 4.04027 19.6666 4.50051 19.6666H6.16717C6.62741 19.6666 7.00051 19.2936 7.00051 18.8333C7.00051 18.3731 6.62741 18 6.16717 18H4.50051ZM3.66717 23.8333C3.66717 23.3731 4.04027 23 4.50051 23H6.16717C6.62741 23 7.00051 23.3731 7.00051 23.8333C7.00051 24.2936 6.62741 24.6666 6.16717 24.6666H4.50051C4.04027 24.6666 3.66717 24.2936 3.66717 23.8333ZM4.50051 28C4.04027 28 3.66717 28.3731 3.66717 28.8333C3.66717 29.2936 4.04027 29.6666 4.50051 29.6666H6.16717C6.62741 29.6666 7.00051 29.2936 7.00051 28.8333C7.00051 28.3731 6.62741 28 6.16717 28H4.50051ZM10.3338 18.8333C10.3338 18.3731 10.7069 18 11.1672 18H12.8338C13.2941 18 13.6672 18.3731 13.6672 18.8333C13.6672 19.2936 13.2941 19.6666 12.8338 19.6666H11.1672C10.7069 19.6666 10.3338 19.2936 10.3338 18.8333ZM11.1672 23C10.7069 23 10.3338 23.3731 10.3338 23.8333C10.3338 24.2936 10.7069 24.6666 11.1672 24.6666H12.8338C13.2941 24.6666 13.6672 24.2936 13.6672 23.8333C13.6672 23.3731 13.2941 23 12.8338 23H11.1672ZM10.3338 28.8333C10.3338 28.3731 10.7069 28 11.1672 28H12.8338C13.2941 28 13.6672 28.3731 13.6672 28.8333C13.6672 29.2936 13.2941 29.6666 12.8338 29.6666H11.1672C10.7069 29.6666 10.3338 29.2936 10.3338 28.8333ZM17.8338 18C17.3736 18 17.0005 18.3731 17.0005 18.8333C17.0005 19.2936 17.3736 19.6666 17.8338 19.6666H19.5005C19.9607 19.6666 20.3338 19.2936 20.3338 18.8333C20.3338 18.3731 19.9607 18 19.5005 18H17.8338ZM17.0005 23.8333C17.0005 23.3731 17.3736 23 17.8338 23H19.5005C19.9607 23 20.3338 23.3731 20.3338 23.8333C20.3338 24.2936 19.9607 24.6666 19.5005 24.6666H17.8338C17.3736 24.6666 17.0005 24.2936 17.0005 23.8333ZM17.8338 28C17.3736 28 17.0005 28.3731 17.0005 28.8333C17.0005 29.2936 17.3736 29.6666 17.8338 29.6666H19.5005C19.9607 29.6666 20.3338 29.2936 20.3338 28.8333C20.3338 28.3731 19.9607 28 19.5005 28H17.8338Z" fill="#006156"/>
</svg>
