<svg width="19" height="22" viewBox="0 0 19 22" fill="none" xmlns="http://www.w3.org/2000/svg">
<path d="M11.4433 12.1355C12.4721 12.1355 13.3498 11.7469 14.0762 10.9673C14.8019 10.1876 15.164 9.15316 15.164 7.86466C15.164 6.82064 14.7901 5.8897 14.0415 5.07264C13.2922 4.25558 12.4272 3.84705 11.4433 3.84705H4.48213C3.86779 3.84705 3.36925 4.38459 3.36925 5.04875V7.78741C3.36925 8.03588 3.55583 8.23815 3.78667 8.23815H3.79478C4.02488 8.23815 4.2122 8.03667 4.2122 7.78741V5.20802C4.2122 4.95956 4.39879 4.75728 4.62962 4.75728H11.4433C12.1926 4.75728 12.8593 5.07582 13.4449 5.71052C14.029 6.3476 14.3225 7.06512 14.3225 7.86386C14.3225 8.93496 14.043 9.76237 13.4855 10.3461C12.9279 10.9314 12.2479 11.2245 11.4441 11.2245H2.79843C2.18409 11.2245 1.68555 11.762 1.68555 12.4262V20.6796C1.68555 20.9281 1.87213 21.1303 2.10297 21.1303H2.11108C2.34118 21.1303 2.5285 20.9289 2.5285 20.6796V12.5862C2.5285 12.3378 2.71509 12.1355 2.94592 12.1355H11.4433Z" fill="#575A65"/>
<path d="M11.4437 10.3158C12.8014 10.3158 13.4799 9.49875 13.4799 7.86463C13.4799 7.27612 13.2786 6.76247 12.8774 6.32368C12.4755 5.88489 11.9968 5.66748 11.4437 5.66748H6.1684C5.55407 5.66748 5.05552 6.20502 5.05552 6.86918V7.78738C5.05552 8.03584 5.24211 8.23812 5.47294 8.23812H5.47958C5.70968 8.23812 5.897 8.03664 5.897 7.78738V7.02686C5.897 6.7784 6.08359 6.57612 6.31443 6.57612H11.4437C11.7785 6.57612 12.0625 6.69956 12.2918 6.94245C12.5212 7.18693 12.637 7.49512 12.637 7.86463C12.637 8.438 12.533 8.83777 12.3213 9.06633C12.1111 9.29329 11.8176 9.40717 11.4437 9.40717H1.11288C0.498546 9.40717 0 9.94471 0 10.6089V20.6812C0 20.9296 0.186586 21.1319 0.417421 21.1319H0.425534C0.655632 21.1319 0.842955 20.9304 0.842955 20.6812V10.7665C0.842955 10.5181 1.02954 10.3158 1.26038 10.3158H11.4437Z" fill="#575A65"/>
<path d="M11.4433 13.9544C12.4028 13.9544 13.2944 13.6964 14.1168 13.178C14.9398 12.6595 15.6006 11.9317 16.0999 10.9928C16.5992 10.0523 16.8492 9.01064 16.8492 7.86469C16.8492 6.85411 16.6014 5.89849 16.1065 4.99781C15.6102 4.09713 14.945 3.37563 14.1109 2.8365C13.2767 2.29737 12.3873 2.0282 11.4433 2.0282H2.79843C2.18409 2.0282 1.68555 2.56574 1.68555 3.2299V7.78744C1.68555 8.0359 1.87213 8.23818 2.10297 8.23818H2.11108C2.34118 8.23818 2.5285 8.0367 2.5285 7.78744V3.38758C2.5285 3.13911 2.71509 2.93684 2.94592 2.93684H11.4433C12.6521 2.93684 13.7148 3.43377 14.6323 4.42841C15.549 5.42226 16.0062 6.56822 16.0062 7.86469C16.0062 8.8681 15.7931 9.76877 15.369 10.5691C14.9435 11.3694 14.3859 11.9826 13.6956 12.4071C13.0046 12.8324 12.2531 13.045 11.4426 13.045H4.48139C3.86706 13.045 3.36851 13.5825 3.36851 14.2467V20.6796C3.36851 20.9281 3.5551 21.1304 3.78593 21.1304H3.79404C4.02414 21.1304 4.21147 20.9289 4.21147 20.6796V14.4044C4.21147 14.1559 4.39805 13.9536 4.62889 13.9536H11.4433V13.9544Z" fill="#575A65"/>
<path d="M17.5627 4.08766C16.9144 2.90906 16.0457 1.96697 14.9534 1.26459C13.8619 0.560607 12.6908 0.208618 11.443 0.208618H1.11288C0.498546 0.208618 0 0.746158 0 1.41032V7.78753C0 8.036 0.186586 8.23827 0.417421 8.23827H0.425534C0.655632 8.23827 0.842955 8.03679 0.842955 7.78753V1.56959C0.842955 1.32113 1.02954 1.11885 1.26038 1.11885H11.4437C12.544 1.11885 13.5758 1.42784 14.5382 2.04661C15.5021 2.66537 16.2684 3.49597 16.837 4.53681C17.4071 5.57605 17.6925 6.68617 17.6925 7.86478C17.6925 8.85146 17.5243 9.77922 17.1888 10.6504C16.854 11.5232 16.4033 12.263 15.837 12.8746C15.2706 13.4862 14.6061 13.9696 13.8428 14.328C13.078 14.6856 12.2778 14.8639 11.4437 14.8639H6.1684C5.55407 14.8639 5.05552 15.4015 5.05552 16.0656V20.6805C5.05552 20.929 5.24211 21.1313 5.47294 21.1313H5.47958C5.70968 21.1313 5.897 20.9298 5.897 20.6805V16.2249C5.897 15.9765 6.08359 15.7742 6.31442 15.7742H11.4437C12.3951 15.7742 13.3007 15.591 14.1584 15.2247C15.0169 14.8584 15.7691 14.3415 16.4174 13.6766C17.0641 13.0116 17.5789 12.1762 17.9609 11.1689C18.3437 10.1631 18.534 9.0617 18.534 7.86478C18.534 6.5269 18.2095 5.26627 17.5627 4.08766Z" fill="#575A65"/>
</svg>
